<svg xmlns="http://www.w3.org/2000/svg" width="1200" height="630" viewBox="0 0 1200 630">
  <defs>
    <linearGradient id="bg" x1="0" y1="0" x2="1" y2="1">
      <stop offset="0%" stop-color="#050816"/>
      <stop offset="100%" stop-color="#0F172A"/>
    </linearGradient>
    <linearGradient id="accent" x1="0" y1="0" x2="1" y2="0">
      <stop offset="0%" stop-color="#00E5FF"/>
      <stop offset="100%" stop-color="#2563EB"/>
    </linearGradient>
  </defs>
  <rect width="1200" height="630" fill="url(#bg)"/>
  <g opacity="0.25" stroke="#00E5FF" stroke-width="1">
    <path d="M0 120 H360 L400 160 H1200"/>
    <path d="M0 480 H300 L340 440 H1200"/>
    <path d="M120 0 V200 L160 240 V630"/>
  </g>
  <rect x="80" y="80" width="96" height="96" rx="20" fill="#0F172A" stroke="#00E5FF" stroke-width="2"/>
  <path d="M108 148 L124 108 H132 L148 148 H136.5 L133.6 138 H118.4 L115.5 148 Z M121.8 128 H130.2 L126 116 Z" fill="#00E5FF"/>
  <text x="80" y="260" font-family="Arial, sans-serif" font-size="56" font-weight="700" fill="#F8FAFC">Azhagumurugan R</text>
  <text x="80" y="310" font-family="Arial, sans-serif" font-size="28" fill="url(#accent)">Embedded Systems &amp; FPGA Engineer</text>
  <text x="80" y="360" font-family="Arial, sans-serif" font-size="22" fill="#94A3B8">ECE Undergraduate — Madras Institute of Technology</text>
  <g fill="#94A3B8" font-family="Arial, sans-serif" font-size="20">
    <text x="80" y="560">Embedded C · FPGA · Verilog · AI · Control Systems</text>
  </g>
</svg>
